Land_normalized_Motion_pl01
version=1
nRows=25
nColumns=43
inDegrees=yes
endheader
time		pelvis_tilt		pelvis_list		pelvis_rotation		pelvis_tx		pelvis_ty		pelvis_tz		hip_flexion_r		hip_adduction_r		hip_rotation_r		knee_angle_r		ankle_angle_r		subtalar_angle_r		mtp_angle_r		hip_flexion_l		hip_adduction_l		hip_rotation_l		knee_angle_l		ankle_angle_l		subtalar_angle_l		mtp_angle_l		lumbar_extension		lumbar_bending		lumbar_rotation		neck_flexion		neck_lateral_bending		neck_rotation		arm_flex_r		arm_add_r		arm_rot_r		elbow_flex_r		pro_sup_r		wrist_flex_r		wrist_dev_r		hand_finger_flex_r		arm_flex_l		arm_add_l		arm_rot_l		elbow_flex_l		pro_sup_l		wrist_flex_l		wrist_dev_l		hand_finger_flex_l		
1.008333		-1.029886		7.698937		91.404955		-0.041164		0.502531		0.489700		79.065480		-5.044109		2.463419		-125.385926		17.597111		0.869604		24.598030		74.029939		-2.623836		-5.297764		-124.547126		25.032044		-14.275569		25.382135		-70.628378		-1.214446		-2.867337		21.622588		1.137876		-5.527536		81.622725		-33.689443		34.367121		59.504924		94.239822		-32.822279		-3.223284		41.419118		81.079329		-30.877710		28.240489		65.143266		125.392453		-30.083600		10.022437		78.848889		
1.011263		-1.058984		7.428425		91.411112		-0.041436		0.499422		0.489106		79.689463		-5.216516		2.502420		-125.809095		17.784693		1.067148		24.607541		74.655088		-2.738417		-5.421650		-125.012819		25.048421		-14.137596		25.482482		-70.706727		-1.208188		-2.797942		21.925037		1.140660		-5.525573		83.896929		-33.558317		35.513534		59.390076		94.361927		-32.707946		-3.362195		41.282222		83.130294		-30.503848		29.412264		65.166329		125.592393		-29.909474		10.058316		78.742517		
1.014192		-1.068336		7.136702		91.434584		-0.041728		0.496392		0.488508		80.320376		-5.392812		2.536081		-126.214718		17.953870		1.288666		24.628451		75.310511		-2.843407		-5.511226		-125.481152		25.043142		-13.957256		25.578976		-70.751430		-1.176003		-2.721531		22.205529		1.161501		-5.520553		86.099602		-33.376238		36.579028		59.235646		94.478854		-32.582280		-3.500322		41.122563		85.114187		-30.107150		30.522592		65.177993		125.753009		-29.760751		10.095515		78.616142		
1.017121		-1.059676		6.821322		91.469291		-0.042018		0.493421		0.487890		80.966660		-5.578914		2.545125		-126.608033		18.109668		1.531883		24.659601		76.000017		-2.938679		-5.560877		-125.955622		25.014953		-13.728053		25.672761		-70.758665		-1.129019		-2.640468		22.457350		1.192937		-5.516690		88.222015		-33.139110		37.554850		59.031627		94.593637		-32.443057		-3.636809		40.940316		87.029921		-29.691051		31.574661		65.182917		125.887455		-29.638707		10.129755		78.460107		
1.020051		-1.031012		6.489063		91.510539		-0.042335		0.490490		0.487247		81.616363		-5.770299		2.545948		-126.992273		18.258665		1.787390		24.699532		76.726093		-3.035561		-5.574371		-126.433960		24.960914		-13.443814		25.768303		-70.731147		-1.061126		-2.556866		22.667430		1.236509		-5.513873		90.260428		-32.837552		38.435152		58.789354		94.698738		-32.291435		-3.769442		40.734569		88.864304		-29.277781		32.570833		65.185764		126.008660		-29.537606		10.159752		78.266068		
1.022980		-0.991200		6.147806		91.552038		-0.042636		0.487636		0.486586		82.264560		-5.966702		2.531020		-127.362559		18.403100		2.050010		24.747952		77.467171		-3.142652		-5.553646		-126.913691		24.882215		-13.096488		25.876906		-70.677975		-0.987938		-2.485190		22.837865		1.278287		-5.507094		92.200952		-32.457888		39.209538		58.495428		94.774487		-32.132909		-3.885357		40.497277		90.618245		-28.874922		33.500765		65.197824		126.123734		-29.449611		10.185271		78.024895		
1.025909		-0.949341		5.811633		91.593270		-0.042912		0.484866		0.485925		82.894041		-6.151971		2.522609		-127.721843		18.543171		2.306166		24.802494		78.208454		-3.273233		-5.514909		-127.380957		24.782792		-12.695199		26.006636		-70.617298		-0.907721		-2.428762		22.972068		1.318280		-5.492545		94.060637		-32.005511		39.887308		58.170078		94.818698		-31.968066		-3.973925		40.237181		92.298571		-28.494672		34.369361		65.218210		126.243844		-29.355436		10.198449		77.753956		
1.028838		-0.910492		5.487501		91.612925		-0.043209		0.482205		0.485259		83.504602		-6.348825		2.499095		-128.065196		18.678667		2.561321		24.863423		78.927927		-3.422697		-5.472424		-127.842275		24.670733		-12.232112		26.177183		-70.558759		-0.840327		-2.377650		23.077343		1.343596		-5.462211		95.853250		-31.498479		40.494820		57.799106		94.815260		-31.808619		-4.035608		39.931703		93.912231		-28.136746		35.203605		65.266770		126.358254		-29.253242		10.201774		77.450398		
1.031768		-0.875002		5.178597		91.623334		-0.043489		0.479670		0.484591		84.084279		-6.528511		2.479978		-128.390134		18.808705		2.798202		24.927598		79.617678		-3.599338		-5.425702		-128.277900		24.549161		-11.728221		26.394462		-70.511113		-0.778423		-2.339369		23.168864		1.357979		-5.419644		97.574481		-30.940472		41.018877		57.401457		94.775680		-31.656988		-4.066638		39.591031		95.467025		-27.791093		35.978929		65.319130		126.469012		-29.138319		10.184397		77.138051		
1.034697		-0.845284		4.873539		91.627307		-0.043771		0.477329		0.483938		84.629488		-6.682013		2.460311		-128.692499		18.934712		3.001985		24.989617		80.269835		-3.796543		-5.392799		-128.669339		24.421811		-11.221637		26.645597		-70.472144		-0.720771		-2.301272		23.293647		1.361859		-5.374170		99.220459		-30.338946		41.425007		56.964986		94.722558		-31.527860		-4.063381		39.236408		96.964959		-27.408969		36.661931		65.336657		126.574110		-29.018453		10.142884		76.846381		
1.037626		-0.816054		4.601401		91.604063		-0.044041		0.475047		0.483237		85.143669		-6.857545		2.434513		-128.981799		19.051672		3.184561		25.048150		80.881187		-4.013810		-5.351546		-129.070819		24.300080		-10.702356		26.949325		-70.448815		-0.687384		-2.240431		23.333916		1.361343		-5.324698		100.776569		-29.762239		41.780286		56.578710		94.674652		-31.411598		-4.061990		38.853850		98.388698		-27.055477		37.320100		65.418785		126.670376		-28.900277		10.063093		76.573712		
1.040556		-0.815660		4.351020		91.589784		-0.044369		0.473116		0.482517		85.583756		-7.046302		2.406680		-129.229344		19.162687		3.266690		25.081877		81.395591		-4.234525		-5.405944		-129.401998		24.222182		-10.404113		27.115530		-70.467148		-0.666282		-2.147029		23.471207		1.355688		-5.302193		102.155514		-29.185981		41.764503		56.220388		94.673938		-31.400487		-4.026307		38.629285		99.646033		-26.487257		37.611022		65.441918		126.746704		-28.843172		9.986740		76.433039		
1.043485		-0.778549		4.045192		91.563708		-0.044600		0.471015		0.481815		86.084667		-7.164668		2.359459		-129.487510		19.282849		3.432030		25.128636		82.008062		-4.455815		-5.351077		-129.769345		24.067456		-9.864581		27.434778		-70.395434		-0.639070		-2.075668		23.485516		1.366774		-5.281989		103.615117		-28.635727		42.110956		55.809326		94.713481		-31.290860		-4.007541		38.267249		101.031016		-26.150333		38.339064		65.472484		126.870896		-28.704426		9.849158		76.224184		
1.046414		-0.737837		3.763935		91.540925		-0.044885		0.469127		0.481090		86.533017		-7.297150		2.298642		-129.719425		19.405537		3.527140		25.164209		82.559397		-4.673891		-5.336129		-130.105340		23.966846		-9.459564		27.722543		-70.356617		-0.608576		-1.963162		23.543340		1.384176		-5.282045		104.943159		-28.094701		42.225016		55.442883		94.752015		-31.265814		-4.004342		37.917781		102.297324		-25.691177		38.830553		65.487804		126.927888		-28.620087		9.740177		76.043397		
1.049343		-0.708105		3.495161		91.523620		-0.045165		0.467400		0.480371		86.947094		-7.433314		2.233840		-129.932550		19.520481		3.597303		25.195200		83.067842		-4.877091		-5.349956		-130.418359		23.894135		-9.128543		27.976179		-70.329678		-0.576228		-1.840449		23.611037		1.400676		-5.282958		106.198933		-27.568528		42.246569		55.108168		94.780326		-31.267656		-4.003095		37.597724		103.479610		-25.192868		39.209194		65.500466		126.964048		-28.556948		9.649900		75.880381		
1.052273		-0.622686		3.175133		91.503282		-0.045365		0.465558		0.479655		87.409299		-7.529411		2.125673		-130.148558		19.635426		3.677385		25.233126		83.665145		-5.080788		-5.260395		-130.755290		23.750737		-8.704006		28.375805		-70.225139		-0.536466		-1.716662		23.606298		1.449830		-5.332227		107.451343		-27.062842		42.457221		54.746928		94.847928		-31.222823		-4.053913		37.097651		104.752919		-24.836838		39.891391		65.506494		126.971589		-28.427123		9.523882		75.644850		
1.055202		-0.599541		2.915601		91.491442		-0.045650		0.464158		0.478980		87.778012		-7.654525		2.056534		-130.325538		19.727302		3.692346		25.258331		84.106819		-5.229928		-5.298903		-131.014616		23.717650		-8.532399		28.576611		-70.220521		-0.505558		-1.608577		23.746110		1.456318		-5.340237		108.567114		-26.519459		42.303247		54.456017		94.836134		-31.270439		-4.064379		36.799050		105.814712		-24.262190		40.040153		65.455565		126.951430		-28.395244		9.481022		75.491878		
1.058131		-0.549949		2.624299		91.483359		-0.045879		0.462634		0.478313		88.195284		-7.769339		1.970615		-130.507593		19.793248		3.717943		25.291179		84.615567		-5.393124		-5.296273		-131.281923		23.592458		-8.287372		28.839575		-70.150625		-0.465113		-1.486051		23.784663		1.488390		-5.383646		109.669783		-26.015110		42.306811		54.143908		94.828856		-31.279627		-4.127544		36.395022		106.924776		-23.830922		40.479902		65.473148		126.938213		-28.285599		9.387943		75.298564		
1.061061		-0.483001		2.335410		91.473433		-0.046104		0.461194		0.477602		88.600557		-7.892528		1.867653		-130.682500		19.824580		3.730600		25.330021		85.109041		-5.581158		-5.281953		-131.539138		23.464397		-7.997163		29.194544		-70.075170		-0.417319		-1.336036		23.760374		1.521617		-5.396599		110.714319		-25.560142		42.331001		53.884208		94.772314		-31.296765		-4.269644		35.847704		107.984458		-23.476381		40.987790		65.610401		126.861907		-28.169281		9.275359		75.036939		
1.063990		-0.450951		2.047681		91.449742		-0.046256		0.459905		0.476953		89.008446		-7.984345		1.788682		-130.835695		19.819400		3.716060		25.371597		85.573883		-5.746960		-5.275746		-131.761590		23.339359		-7.703515		29.511886		-70.011610		-0.403242		-1.241190		23.802539		1.525419		-5.398080		111.697997		-25.052681		42.270242		53.612574		94.633625		-31.339213		-4.443539		35.313577		109.000257		-23.082316		41.361045		65.676480		126.792905		-28.067074		9.175213		74.763670		
1.066919		-0.435979		1.784688		91.430209		-0.046469		0.458842		0.476299		89.370499		-8.082245		1.729364		-130.976267		19.824156		3.698736		25.406615		85.965086		-5.901775		-5.310735		-131.939774		23.258716		-7.470572		29.755558		-69.981524		-0.388733		-1.133722		23.849968		1.508539		-5.375845		112.625517		-24.573154		42.129027		53.384416		94.507053		-31.400656		-4.582124		34.888913		109.921700		-22.622844		41.581726		65.735989		126.739139		-28.003377		9.099870		74.541887		
1.069848		-0.450610		1.535507		91.411786		-0.046682		0.457935		0.475657		89.714926		-8.186696		1.719813		-131.100696		19.827612		3.690196		25.427803		86.311866		-6.048179		-5.361857		-132.088457		23.189530		-7.291223		29.869567		-69.970509		-0.388960		-1.035522		23.949835		1.460228		-5.358254		113.504528		-24.088636		41.909220		53.164145		94.423241		-31.485988		-4.658056		34.650127		110.778374		-22.080712		41.666434		65.719143		126.748308		-27.971413		9.048768		74.410719		
1.072778		-0.464200		1.273891		91.386237		-0.046836		0.457059		0.474961		90.072826		-8.269687		1.704178		-131.229167		19.791137		3.685709		25.447215		86.664615		-6.204011		-5.404934		-132.240758		23.091911		-7.052099		29.987236		-69.932757		-0.401112		-0.945524		23.969306		1.428304		-5.357224		114.324518		-23.643620		41.738118		52.988232		94.346864		-31.574812		-4.787238		34.402312		111.619273		-21.624920		41.844708		65.771968		126.781141		-27.924188		8.966363		74.279154		
1.075707		-0.476018		1.038683		91.346812		-0.046854		0.456103		0.474101		90.422172		-8.299719		1.686382		-131.422686		19.706162		3.651852		25.470284		86.999032		-6.368337		-5.384433		-132.460172		23.035143		-6.755479		30.139809		-69.879879		-0.440860		-0.927717		23.848182		1.451596		-5.365387		115.010710		-23.248811		41.627793		52.965645		94.270761		-31.677295		-5.051812		34.107792		112.379557		-21.311832		42.054072		65.935352		126.812895		-27.886410		8.853598		74.116852		
1.078636		-0.477520		0.576019		91.261649		-0.046711		0.455052		0.473600		91.022821		-8.250010		1.642614		-131.482685		19.488121		3.564083		25.520458		87.579055		-6.620222		-5.347825		-132.561136		22.914427		-6.073908		30.503061		-69.611508		-0.533846		-0.871012		23.903215		1.496178		-5.368458		115.763799		-22.728407		41.577771		52.574146		94.073285		-31.862849		-5.594279		33.431111		113.354603		-21.020987		42.691745		65.938829		126.861967		-27.744909		8.663289		73.743355		
